<?xml version="1.0" encoding="UTF-8" standalone="no"?>
<!-- Created with Inkscape (http://www.inkscape.org/) -->

<svg
   xmlns:dc="http://purl.org/dc/elements/1.1/"
   xmlns:cc="http://creativecommons.org/ns#"
   xmlns:rdf="http://www.w3.org/1999/02/22-rdf-syntax-ns#"
   xmlns:svg="http://www.w3.org/2000/svg"
   xmlns="http://www.w3.org/2000/svg"
   xmlns:sodipodi="http://sodipodi.sourceforge.net/DTD/sodipodi-0.dtd"
   xmlns:inkscape="http://www.inkscape.org/namespaces/inkscape"
   width="100"
   height="200"
   viewBox="0 0 99.999994 200"
   id="svg4205"
   version="1.1"
   inkscape:version="0.91 r"
   sodipodi:docname="f-sit-selected.svg">
  <defs
     id="defs4207" />
  <sodipodi:namedview
     id="base"
     pagecolor="#ffffff"
     bordercolor="#666666"
     borderopacity="1.0"
     inkscape:pageopacity="0.0"
     inkscape:pageshadow="2"
     inkscape:zoom="4.309375"
     inkscape:cx="50.04936"
     inkscape:cy="99.871905"
     inkscape:document-units="px"
     inkscape:current-layer="layer1"
     showgrid="false"
     fit-margin-top="0"
     fit-margin-left="0"
     fit-margin-right="0"
     fit-margin-bottom="0"
     inkscape:window-width="1280"
     inkscape:window-height="974"
     inkscape:window-x="0"
     inkscape:window-y="24"
     inkscape:window-maximized="1"
     units="px" />
  <metadata
     id="metadata4210">
    <rdf:RDF>
      <cc:Work
         rdf:about="">
        <dc:format>image/svg+xml</dc:format>
        <dc:type
           rdf:resource="http://purl.org/dc/dcmitype/StillImage" />
        <dc:title></dc:title>
      </cc:Work>
    </rdf:RDF>
  </metadata>
  <g
     inkscape:label="Layer 1"
     inkscape:groupmode="layer"
     id="layer1"
     transform="translate(94.178869,-387.44536)">
    <path
       style="fill:#ff0000;fill-opacity:1;fill-rule:evenodd;stroke:none;stroke-width:3;stroke-linecap:round;stroke-linejoin:round;stroke-miterlimit:4;stroke-dasharray:none;stroke-opacity:1"
       d="m -45.819372,422.35828 3.95022,0.11533 2.934454,1.03792 1.80582,1.61456 1.354361,1.84519 0.790043,2.65249 0.902916,2.88313 0,3.34444 -0.11287,3.11376 -0.564319,2.07585 -0.677182,2.19119 -1.241495,1.61455 -0.56432,0.69195 0.112866,0.92259 1.241496,1.49923 4.514547,2.19118 4.17595,2.19119 3.837366,3.92104 2.708724,18.56735 0.564319,5.99692 0.338593,6.80418 -0.790047,3.34443 -1.241499,1.96053 -1.805816,1.61456 -1.354361,0.57661 -5.530321,0 1.918681,3.69041 1.918681,3.22911 1.354362,3.45974 0.225731,5.65094 0.338593,1.84519 1.241495,2.30652 3.49877,0.34597 0.112866,0.80728 -1.241501,0.57662 -3.047315,0.23065 -0.564315,1.15325 -1.015774,1.26858 -2.257273,-0.46129 -1.467228,-0.92261 -0.790047,-1.38389 -1.918684,-0.23065 -0.677181,0.69194 0.225727,0.80727 0.564323,0.57663 0.112858,0.9226 -1.241492,0.9226 -0.790051,0.69196 0,0.80728 1.918685,2.30649 4.853131,13.60838 3.61164,9.11068 2.595861,5.76625 2.595867,4.959 2.821588,6.57354 2.144408,4.26702 1.805815,3.11378 0.451455,2.7678 -0.790046,1.61456 -1.241496,1.49922 -1.241501,0.34598 -2.821589,-1.72988 -1.241505,-1.72988 -1.467226,-1.8452 -0.564316,-1.61455 -0.902907,-2.19119 -0.338592,-0.57663 -0.677182,0 -0.451453,0.92262 -1.128634,1.15325 -1.580089,0.4613 -1.692958,-0.9226 -1.580093,-2.30651 -1.69295,-3.11376 -1.467228,-2.76782 -1.354362,-3.34443 -0.902908,-2.53715 -0.112869,-2.19119 -1.580088,-2.88312 -4.288817,-5.42029 -4.401676,-4.72832 -3.61164,-4.26704 -3.950228,-4.61299 -0.225726,-1.49924 -4.627409,0.23065 -2.031547,-2.3065 -1.354361,-2.07586 -0.338593,-0.92259 0.112866,-2.3065 -1.128639,-0.46131 -0.564319,2.19119 -5.417455,-4.959 -0.112858,-3.34442 1.241501,-2.99846 1.692945,-2.19118 -1.354362,-3.22909 0.790047,-2.42185 1.2415,-3.22909 2.031551,-4.03638 1.692955,-2.42183 -2.483006,-2.88313 0.225732,-2.30651 -1.580098,-0.80726 -2.257264,-2.65248 -1.354371,-1.61455 -0.338588,-3.57509 1.2415,-3.11378 1.354367,-7.03482 1.015769,-7.84213 1.35437,-3.57508 1.580084,-5.88158 2.370139,-1.72988 4.17595,-2.19118 3.950228,-1.61455 2.257273,-1.84519 0.451455,-1.84521 -3.273043,0.92259 -4.063094,-0.23064 -1.354361,-0.80728 1.128634,-2.07585 0.902908,-3.11378 0.112857,-2.76779 -0.338579,-3.69043 -1.354367,-3.92104 1.128636,-2.42183 1.805815,-2.07585 2.370135,-1.84521 z"
       id="path4203"
       inkscape:connector-curvature="0" />
  </g>
</svg>
