<?xml version="1.0" encoding="UTF-8" standalone="no"?>
<!-- Created with Inkscape (http://www.inkscape.org/) -->

<svg
   xmlns:dc="http://purl.org/dc/elements/1.1/"
   xmlns:cc="http://creativecommons.org/ns#"
   xmlns:rdf="http://www.w3.org/1999/02/22-rdf-syntax-ns#"
   xmlns:svg="http://www.w3.org/2000/svg"
   xmlns="http://www.w3.org/2000/svg"
   xmlns:sodipodi="http://sodipodi.sourceforge.net/DTD/sodipodi-0.dtd"
   xmlns:inkscape="http://www.inkscape.org/namespaces/inkscape"
   width="200"
   height="254"
   viewBox="0 0 200 254"
   id="svg5026"
   version="1.1"
   inkscape:version="0.91 r"
   inkscape:export-filename="/home/vitalie/mwambanatanga.github.io/f-stand.png"
   inkscape:export-xdpi="90"
   inkscape:export-ydpi="90"
   sodipodi:docname="f-stand.svg">
  <defs
     id="defs5028" />
  <sodipodi:namedview
     id="base"
     pagecolor="#ffffff"
     bordercolor="#666666"
     borderopacity="1.0"
     inkscape:pageopacity="0.0"
     inkscape:pageshadow="2"
     inkscape:zoom="0.81454783"
     inkscape:cx="-12.688101"
     inkscape:cy="153.0792"
     inkscape:document-units="px"
     inkscape:current-layer="layer1"
     showgrid="false"
     units="px"
     inkscape:window-width="1280"
     inkscape:window-height="748"
     inkscape:window-x="0"
     inkscape:window-y="26"
     inkscape:window-maximized="1" />
  <metadata
     id="metadata5031">
    <rdf:RDF>
      <cc:Work
         rdf:about="">
        <dc:format>image/svg+xml</dc:format>
        <dc:type
           rdf:resource="http://purl.org/dc/dcmitype/StillImage" />
        <dc:title></dc:title>
      </cc:Work>
    </rdf:RDF>
  </metadata>
  <g
     inkscape:label="Layer 1"
     inkscape:groupmode="layer"
     id="layer1"
     transform="translate(0,-798.36216)">
    <g
       id="g5652"
       transform="translate(-294.28571,-241.28572)">
      <path
         sodipodi:nodetypes="cc"
         inkscape:connector-curvature="0"
         id="path5024"
         d="m 400.12493,695.19269 200,-0.1162"
         style="fill:none;fill-rule:evenodd;stroke:#000000;stroke-width:0.5;stroke-linecap:butt;stroke-linejoin:miter;stroke-miterlimit:4;stroke-dasharray:none;stroke-opacity:1" />
      <g
         transform="translate(754.28567,525.71426)"
         id="g4941">
        <path
           sodipodi:nodetypes="csccsc"
           inkscape:connector-curvature="0"
           id="path7220"
           d="m -154.16074,-50.637811 c -11,0 -21,10 -21,21 l 0,209.000001 -4,0 0,-209.000001 c 0,-14 11,-25 25,-25"
           style="opacity:1;fill:#afadaf;fill-opacity:1;fill-rule:nonzero;stroke:#000000;stroke-width:0.5;stroke-linecap:butt;stroke-linejoin:miter;stroke-miterlimit:4;stroke-dasharray:none;stroke-opacity:1" />
        <g
           id="g4319"
           transform="matrix(2.4684172,0,0,1.6755375,-401.20003,-708.33892)">
          <path
             id="path4303"
             d="m 100.08004,461.16611 c -1.620473,0 -2.430708,1.19365 -2.430708,3.58094 l 0,29.84117 2.430708,0"
             style="opacity:1;fill:#9a190a;fill-opacity:1;fill-rule:nonzero;stroke:#000000;stroke-width:0.2458576;stroke-linecap:butt;stroke-linejoin:miter;stroke-miterlimit:4;stroke-dasharray:none;stroke-opacity:1"
             inkscape:connector-curvature="0"
             sodipodi:nodetypes="cscc" />
          <path
             id="path4309"
             d="m 100.08004,502.94375 -2.835826,4.9e-4 c -0.405118,-4.9e-4 -0.810236,-0.59732 -0.810236,-1.19414 l 0,-5.96774 c 0,-0.59732 0.405118,-1.19414 0.810236,-1.19365 l 2.835826,0"
             style="fill:#6f0a0a;fill-opacity:1;fill-rule:evenodd;stroke:#000000;stroke-width:0.2458576;stroke-linecap:butt;stroke-linejoin:miter;stroke-miterlimit:4;stroke-dasharray:none;stroke-opacity:1"
             inkscape:connector-curvature="0"
             sodipodi:nodetypes="ccsscc" />
        </g>
        <path
           sodipodi:nodetypes="ccccc"
           style="fill:#ffff00;fill-opacity:1;fill-rule:evenodd;stroke:none;stroke-width:1px;stroke-linecap:butt;stroke-linejoin:miter;stroke-opacity:1"
           d="m -275.03919,-36.637811 -4.12155,0 0,206.000031 4,0 z"
           id="path5269-1"
           inkscape:connector-curvature="0" />
        <path
           sodipodi:nodetypes="ccccc"
           style="fill:#ffff00;fill-opacity:1;fill-rule:evenodd;stroke:none;stroke-width:1px;stroke-linecap:butt;stroke-linejoin:miter;stroke-opacity:1"
           d="m -279.16076,-36.637811 -4.12155,0 0.12157,206.000031 4,0 z"
           id="path5269"
           inkscape:connector-curvature="0" />
        <path
           style="opacity:1;fill:none;fill-opacity:1;fill-rule:nonzero;stroke:#000000;stroke-width:0.5;stroke-linecap:butt;stroke-linejoin:miter;stroke-miterlimit:4;stroke-dasharray:none;stroke-opacity:1"
           d="m -354.16074,-74.637811 4,0 0,244.000031 -4,0 z"
           id="rect4142"
           inkscape:connector-curvature="0"
           sodipodi:nodetypes="ccccc" />
        <path
           style="opacity:1;fill:none;fill-opacity:1;fill-rule:nonzero;stroke:#000000;stroke-width:0.5;stroke-linecap:butt;stroke-linejoin:miter;stroke-miterlimit:4;stroke-dasharray:none;stroke-opacity:1"
           d="m -208.16074,-74.637811 4,0 0,244.000031 -4,0 z"
           id="rect4142-7"
           inkscape:connector-curvature="0"
           sodipodi:nodetypes="ccccc" />
        <path
           style="opacity:1;fill:none;fill-opacity:1;fill-rule:nonzero;stroke:#000000;stroke-width:0.5;stroke-linecap:butt;stroke-linejoin:miter;stroke-miterlimit:4;stroke-dasharray:none;stroke-opacity:1"
           d="m -208.16074,-40.637811 0,4 -142,0 0,-4 z"
           id="rect4142-2-7"
           inkscape:connector-curvature="0"
           sodipodi:nodetypes="ccccc" />
        <g
           id="g7214"
           transform="translate(-254.16074,-361.99989)">
          <path
             sodipodi:nodetypes="ccccc"
             inkscape:connector-curvature="0"
             id="rect4142-2"
             d="m 46,287.36208 0,34 -142,0 0,-34 z"
             style="opacity:1;fill:none;fill-opacity:1;fill-rule:nonzero;stroke:#000000;stroke-width:0.5;stroke-linecap:butt;stroke-linejoin:miter;stroke-miterlimit:4;stroke-dasharray:none;stroke-opacity:1" />
          <path
             sodipodi:nodetypes="ccccc"
             inkscape:connector-curvature="0"
             id="rect4142-2-9"
             d="m 42,291.36208 0,26 -134,0 0,-26 z"
             style="opacity:1;fill:none;fill-opacity:1;fill-rule:nonzero;stroke:#000000;stroke-width:0.5;stroke-linecap:butt;stroke-linejoin:miter;stroke-miterlimit:4;stroke-dasharray:none;stroke-opacity:1" />
        </g>
        <path
           style="fill:none;fill-rule:evenodd;stroke:#000000;stroke-width:0.5;stroke-linecap:butt;stroke-linejoin:miter;stroke-miterlimit:4;stroke-dasharray:none;stroke-opacity:1"
           d="m -279.16074,-36.637811 0,206.000031"
           id="path5025"
           inkscape:connector-curvature="0"
           sodipodi:nodetypes="cc" />
        <path
           inkscape:connector-curvature="0"
           style="opacity:1;fill:none;fill-opacity:1;fill-rule:nonzero;stroke:#000000;stroke-width:0.5;stroke-linecap:square;stroke-linejoin:bevel;stroke-miterlimit:4;stroke-dasharray:none;stroke-opacity:1"
           d="m -326.95228,-29.637801 24.58308,0 c 8.42549,0 15.20846,6.78297 15.20846,15.20846 l 0,63.58307 c 0,8.42549 -6.78297,15.20846 -15.20846,15.20846 l -24.58308,0 c -8.42549,0 -15.20846,-6.78297 -15.20846,-15.20846 l 0,-63.58307 c 0,-8.42549 6.78297,-15.20846 15.20846,-15.20846 z"
           id="rect5027" />
        <path
           style="opacity:1;fill:none;fill-opacity:1;fill-rule:nonzero;stroke:#000000;stroke-width:0.5;stroke-linecap:square;stroke-linejoin:bevel;stroke-miterlimit:4;stroke-dasharray:none;stroke-opacity:1"
           d="m -255.95228,-29.637801 24.58308,0 c 8.42549,0 15.20846,6.78297 15.20846,15.20846 l 0,63.58307 c 0,8.42549 -6.78297,15.20846 -15.20846,15.20846 l -24.58308,0 c -8.42549,0 -15.20846,-6.78297 -15.20846,-15.20846 l 0,-63.58307 c 0,-8.42549 6.78297,-15.20846 15.20846,-15.20846 z"
           id="rect5027-5"
           inkscape:connector-curvature="0" />
      </g>
    </g>
    <path
       style="fill:#ff0000;fill-opacity:1;fill-rule:evenodd;stroke:none;stroke-width:1px;stroke-linecap:butt;stroke-linejoin:miter;stroke-opacity:1"
       d="m 76.48754,836.1953 2.87012,0.14351 2.58309,0.43051 2.43959,2.4396 2.43961,4.59217 1.72207,7.6058 0.51042,5.23631 1.39105,5.68643 -3.02668,1.14478 -4.26442,0.77459 1.51497,1.79546 1.29155,0.86102 1.86557,1.29156 2.4396,1.00454 1.72207,1.00454 2.43959,1.14804 4.16166,1.72207 1.43505,2.87011 1.14805,4.30516 2.4396,9.32787 2.29609,10.47591 0.1435,5.45321 -1.86557,4.44868 -3.30063,1.72206 -6.17074,0.14351 4.59218,11.62395 -2.29609,1.00453 1.86558,5.0227 -0.14351,17.93821 -0.86104,5.0227 0.14351,12.485 -3.15712,2.7266 -2.2961,8.3233 0.28702,7.1753 -0.86103,4.7356 0.71752,7.0318 -2.43959,16.64667 -2.4396,9.1843 -2.00907,6.7448 0.1435,4.8792 -1.00454,2.0091 0.28701,3.5876 0.43052,6.0272 0.57402,3.1572 -0.57402,3.7311 -1.14804,1.2916 -6.17074,0.287 -2.00908,-4.1617 1.14804,-3.1571 0.14351,-8.8974 -0.71753,-2.5831 2.5831,-6.0272 0.57402,-3.4441 -0.43052,-13.2025 0.28702,-12.91547 1.57856,-8.3234 -1.86558,-9.4713 0.28702,-11.624 -3.87465,0 0,13.346 -0.86104,3.4442 -0.71753,4.0181 0.43053,6.7448 0.43051,8.46677 -0.86104,11.7675 -0.86103,7.8928 0.1435,2.7266 2.00908,4.4487 0.43052,2.4396 -0.1435,2.7266 -0.28702,8.6103 0.43052,2.2961 -0.57402,2.8701 -1.00454,1.5786 -5.45321,0.1435 -2.15259,-1.0046 -0.287,-4.5922 0.86103,-2.009 0.1435,-7.8928 1.14805,-1.5786 -0.28702,-1.4351 -0.71752,-0.7175 -0.14351,-3.4441 0.57402,-1.5786 -2.72661,-10.1889 -2.29608,-12.485 -0.28701,-10.61937 0.71753,-6.3142 -0.14351,-5.7402 0.14351,-7.8929 -1.72206,-5.4532 -2.72661,-1.0045 0.287,-7.8928 -2.43959,-14.2071 0.14351,-13.34598 1.57855,-8.75384 -1.43505,-1.00454 2.72661,-8.32332 -3.58764,0 -1.57856,-1.00454 -2.15258,-6.02724 -0.57403,-16.07262 1.14804,-12.48499 2.4396,-5.74022 7.7493,-4.16166 5.74022,-2.72661 1.78893,-1.50843 -6.52461,-1.21817 1.14805,-6.02724 1.00454,-5.45322 0.57401,-5.74021 1.57857,-5.0227 3.15712,-4.01815 2.29609,-1.00454 z"
       id="path4271"
       inkscape:connector-curvature="0"
       sodipodi:nodetypes="ccccccccccccccccccccccccccccccccccccccccccccccccccccccccccccccccccccccccccccccccccccccccccccccccccccccccccccccccccc" />
  </g>
</svg>
