<?xml version="1.0" encoding="UTF-8" standalone="no"?>
<!-- Created with Inkscape (http://www.inkscape.org/) -->

<svg
   xmlns:dc="http://purl.org/dc/elements/1.1/"
   xmlns:cc="http://creativecommons.org/ns#"
   xmlns:rdf="http://www.w3.org/1999/02/22-rdf-syntax-ns#"
   xmlns:svg="http://www.w3.org/2000/svg"
   xmlns="http://www.w3.org/2000/svg"
   xmlns:sodipodi="http://sodipodi.sourceforge.net/DTD/sodipodi-0.dtd"
   xmlns:inkscape="http://www.inkscape.org/namespaces/inkscape"
   width="100"
   height="200"
   viewBox="0 0 100 200.00001"
   id="svg5710"
   version="1.1"
   inkscape:version="0.91 r"
   sodipodi:docname="m-sit-selected.svg"
   inkscape:export-filename="/home/vitalie/mwambanatanga.github.io/m-sit-selected.png"
   inkscape:export-xdpi="90"
   inkscape:export-ydpi="90">
  <defs
     id="defs5712" />
  <sodipodi:namedview
     id="base"
     pagecolor="#ffffff"
     bordercolor="#666666"
     borderopacity="1.0"
     inkscape:pageopacity="0.0"
     inkscape:pageshadow="2"
     inkscape:zoom="6.1460633"
     inkscape:cx="7.6755164"
     inkscape:cy="57.830181"
     inkscape:document-units="px"
     inkscape:current-layer="layer1"
     showgrid="false"
     units="px"
     fit-margin-top="0"
     fit-margin-left="0"
     fit-margin-right="0"
     fit-margin-bottom="0"
     inkscape:snap-global="false"
     inkscape:window-width="1280"
     inkscape:window-height="974"
     inkscape:window-x="0"
     inkscape:window-y="24"
     inkscape:window-maximized="1" />
  <metadata
     id="metadata5715">
    <rdf:RDF>
      <cc:Work
         rdf:about="">
        <dc:format>image/svg+xml</dc:format>
        <dc:type
           rdf:resource="http://purl.org/dc/dcmitype/StillImage" />
        <dc:title></dc:title>
      </cc:Work>
    </rdf:RDF>
  </metadata>
  <g
     inkscape:label="Layer 1"
     inkscape:groupmode="layer"
     id="layer1"
     transform="translate(83.522027,5.95251)">
    <path
       style="fill:#000000;fill-opacity:1;fill-rule:evenodd;stroke:none;stroke-width:1px;stroke-linecap:butt;stroke-linejoin:miter;stroke-opacity:1"
       d="m -40.393638,123.34226 -4.14849,0.0881 -4.05202,-1.9386 -4.123389,-3.91678"
       id="path6343" />
    <path
       style="fill:#0000ff;fill-opacity:1"
       d="m -52.603799,115.36734 c -0.07439,0.69524 -0.145289,1.37735 -0.212833,2.04661"
       id="path6347" />
    <path
       style="fill:#0000ff;fill-opacity:1"
       d="m -16.474265,115.69975 c 0.139847,1.30706 0.267385,2.56774 0.383436,3.78381"
       id="path6351" />
    <path
       style="fill:#0000ff;fill-opacity:1;stroke:#000000;stroke-opacity:1;stroke-width:1.00000008;stroke-miterlimit:4;stroke-dasharray:none;stroke-linejoin:round;stroke-linecap:round"
       d="m -16.090829,119.48356 c 1.66978,6.85917 2.45899,10.24 2.523104,14.6139 -0.741517,6.63341 -1.302265,14.85104 -1.750831,17.5164 -0.596569,2.14299 -1.474275,6.44832 -1.769689,9.43441 -0.04322,1.34464 -0.190835,2.14313 -0.142418,3.16523 0.01946,2.51363 0.464813,2.17354 0.475652,2.60734 0.0186,0.73931 -0.901438,0.63762 -1.896308,1.30602 -0.105998,0.48365 -0.184375,1.41929 0.196428,2.63852 0.170239,0.85285 0.398046,1.95584 1.098195,3.2936 0.23602,0.7098 1.114411,1.5287 2.085192,2.6507 1.30818,1.7107 1.69257,2.3668 2.96569,5.2262 0.56092,1.3591 0.74327,3.3862 0.35686,4.1749 -0.66721,1.3408 -1.84328,1.9978 -4.502331,2.2752 l -3.410161,-0.092 c -1.52513,-0.032 -1.97998,-0.3259 -3.15069,-0.5735 -0.3904,-0.4141 -1.62856,-0.4517 -2.30089,-1.4375 -1.17512,-1.7153 -1.2325,-2.222 -1.48349,-4.0162 -0.14334,-1.0253 -0.4111,-1.5237 -0.59466,-1.8786 -0.36809,-1.5531 -0.9541,-1.1693 -1.937181,-2.2734 -1.886341,-1.5824 -2.402091,-1.8451 -2.275311,-4.2505 0.0799,-1.5182 0.27201,-2.4055 1.02208,-4.7261 l 0.923761,-2.85301 -1.493977,-3.0076 c 0.02171,-1.90525 0,-2.98306 0.485579,-7.16117 0.29819,-3.7738 0.820294,-7.94129 1.497609,-14.9979 -1.116656,-8.37771 -2.627482,-13.03809 -3.980612,-16.96875 -0.40312,0.0486 -0.749379,-0.0439 -1.226539,-0.0599 -0.7094,-0.10131 -0.798368,-0.0774 -1.601686,-0.13181 -1.343535,3.87209 -3.581103,5.41537 -4.684419,13.69299 0.677315,7.05661 2.453457,16.36566 2.751647,20.13946 0.485579,4.17811 -0.03775,3.24946 -0.01604,5.15471 l -1.493977,3.0076 0.923761,2.85301 c 0.75007,2.3206 0.94218,3.2079 1.02208,4.7261 0.12678,2.4054 -0.38897,2.6681 -2.275311,4.2505 -0.98308,1.1041 -1.56909,0.7203 -1.93718,2.2734 -0.18356,0.3549 -0.45132,0.8533 -0.59466,1.8786 -0.25099,1.7942 -0.30837,2.3009 -1.48349,4.0162 -0.67233,0.9858 -1.91049,1.0234 -2.30089,1.4375 -1.17071,0.2476 -1.62556,0.5415 -3.15069,0.5735 l -3.410161,0.092 c -2.65905,-0.2774 -3.83512,-0.9344 -4.50233,-2.2752 -0.38641,-0.7887 -0.20406,-2.8158 0.35686,-4.1749 1.27312,-2.8594 1.65751,-3.5155 2.96569,-5.2262 0.97078,-1.122 1.849171,-1.9409 2.085191,-2.6507 0.700149,-1.33776 0.927956,-2.44075 1.098195,-3.2936 0.380803,-1.21923 0.302426,-2.15487 0.196428,-2.63852 -0.99487,-0.6684 -1.914908,-0.56671 -1.896308,-1.30602 0.01084,-0.4338 0.456192,-0.0937 0.475652,-2.60734 0.04842,-1.0221 -0.0992,-1.82059 -0.142418,-3.16523 -0.295414,-2.98609 -0.796909,-7.16602 -1.393478,-9.30901 -0.387714,-2.18792 -1.823729,-7.23603 -2.698522,-16.03628 -0.470764,-4.7358 1.615356,-10.05814 3.314735,-17.8761 l -0.650894,-0.58483 -1.15771,1.5861 -0.57886,-1.23364 -0.19295,-19.03346 2.026,-4.053425 -3.56963,-1.93858 -2.315441,-4.75837 1.061251,-0.9693 -1.833064,-2.11483 1.15772,-0.52871 -1.350673,-1.58611 0,-5.19897 -0.57886,-0.35247 -0.0965,-4.84648 -0.675332,-0.88118 0.0965,-2.11483 1.929533,-1.93859 0.0965,-0.9693 -0.868285,-0.44058 0.57886,-5.81579 1.061241,-1.32176 -0.675334,-1.32178 0.0965,-1.05741 11.673664,-3.78906 3.28021,-0.52872 1.35067,-2.73165 1.35067,-1.49801 0.28943,-2.46729 -1.15772,-1.49801 -0.67533,-2.46731 -0.0965,-3.52471 0.48237,-3.08412 0.57886,-2.9079 3.08726,-3.17224 3.18371,-1.40989 4.24498,-0.26435 3.37667,1.49801 0.77176,1.05742 1.2542,-0.0881 1.73657,4.67025 -0.28942,4.22966 -0.28944,2.29106 -0.67533,2.9079 -2.70135,2.20295 -0.57886,3.17223 6.17451,2.46731 7.04278,0.79306 3.7626,4.31777 1.64009,5.28708 1.5436202,1.85048 1.4471602,6.96131 0.96476,2.29106 0.0965,4.84649 0.8683002,1.58612 -1.4471602,4.14154 -3.1837204,4.84649 -2.79782,1.32176 1.54363,4.22966 0.19295,7.225665 1.8330502,9.07614 0.19296,4.49401 -0.5258357,10.12018 -2.5835185,0.0117 -3.04011,-4.84485 z"
       id="path6307-1-1"
       inkscape:connector-curvature="0"
       sodipodi:nodetypes="cccccccccccccccccccccccccccccccccccccccccccccccccccscccccccccccccccccccccccccccccccccccccccccccccccccccccccccccccccccc" />
  </g>
</svg>
