<?xml version="1.0" encoding="UTF-8" standalone="no"?>
<!-- Created with Inkscape (http://www.inkscape.org/) -->

<svg
   xmlns:dc="http://purl.org/dc/elements/1.1/"
   xmlns:cc="http://creativecommons.org/ns#"
   xmlns:rdf="http://www.w3.org/1999/02/22-rdf-syntax-ns#"
   xmlns:svg="http://www.w3.org/2000/svg"
   xmlns="http://www.w3.org/2000/svg"
   xmlns:sodipodi="http://sodipodi.sourceforge.net/DTD/sodipodi-0.dtd"
   xmlns:inkscape="http://www.inkscape.org/namespaces/inkscape"
   width="104.01162mm"
   height="317.91617mm"
   viewBox="0 0 368.54511 1126.4746"
   id="svg4821"
   version="1.1"
   inkscape:version="0.91 r"
   sodipodi:docname="m-stand.svg">
  <defs
     id="defs4823" />
  <sodipodi:namedview
     id="base"
     pagecolor="#ffffff"
     bordercolor="#666666"
     borderopacity="1.0"
     inkscape:pageopacity="0.0"
     inkscape:pageshadow="2"
     inkscape:zoom="0.40927857"
     inkscape:cx="-463.1541"
     inkscape:cy="836.37606"
     inkscape:document-units="px"
     inkscape:current-layer="layer1"
     showgrid="false"
     inkscape:snap-global="false"
     inkscape:window-width="1280"
     inkscape:window-height="974"
     inkscape:window-x="0"
     inkscape:window-y="24"
     inkscape:window-maximized="1"
     fit-margin-top="0"
     fit-margin-left="0"
     fit-margin-right="0"
     fit-margin-bottom="0" />
  <metadata
     id="metadata4826">
    <rdf:RDF>
      <cc:Work
         rdf:about="">
        <dc:format>image/svg+xml</dc:format>
        <dc:type
           rdf:resource="http://purl.org/dc/dcmitype/StillImage" />
        <dc:title />
      </cc:Work>
    </rdf:RDF>
  </metadata>
  <g
     inkscape:label="Layer 1"
     inkscape:groupmode="layer"
     id="layer1"
     transform="translate(-836.87027,57.465311)">
    <path
       style="fill:#0000ff;fill-opacity:1"
       d="m 1093.5268,111.38062 c 0.693,0 3.559,2.61 6.371,5.81 4.695,5.33 5.795,6.02 13.473,8.42 4.598,1.44 10.835,3.53 13.86,4.64 3.025,1.12 11.8,3.88 19.5,6.13 18.682,5.48 29.372,10.71 36.552,17.89 7.1,7.1 8.93,11.87 12.36,32.34 8.68,51.74 9.98,89.69 6.51,191.27 -1.15,33.9 -0.63,61.68 1.72,91 2.44,30.43 1.96,55.82 -1.26,66.75 -0.8,2.72 -2.38,2.06 -2.4,-1 -2.5698,2.66473 -3.8971,6.15136 -5.6734,10.91376 3.1675,4.24235 7.6963,16.63624 7.6963,25.13624 0,21.94 -13.54,38.74 -34.87,43.26 -6.67,1.41 -10.929,1.62 -14.632,0.72 -3.654,-0.89 -5.5,-3.4 -5.5,-7.48 0,-4.89 2.612,-7.66 11.122,-11.78 10.54,-5.11 13.9,-9.65 13.86,-18.74 -0.03,-5.18 -2.02,-10.29 -7.56,-19.41 l -3.55,-5.84 -4.8079,-12.04 -2.784,-1.18 c -6.077,-2.58 -5.805,-0.61 -5.538,-40.1 l 0.246,-36.21 -2.862,3.11 c -3.987,4.34 -4.575,9.75 -2.503,22.99 1.354,8.65 1.718,18.03 1.764,45.4 0.06,35.48 -0.807,46.02 -4.783,58.19 -0.774,2.37 -1.702,10.16 -2.062,17.31 -0.361,7.15 -1.959,35.27 -3.552,62.5 -7.098,121.3 -8.371,167.02 -5.429,195 0.839,7.97 1.881,23.72 2.315,35 0.747,19.38 0.945,20.85 3.606,27 1.548,3.57 2.86,8.29 2.915,10.49 0.094,3.74997 -0.224,4.19997 -5.27,7.58997 -2.953,1.97 -5.766,4.3 -6.25,5.17 -1.069,1.91 1.037,13.55 4.105,22.74997 1.197,3.6 6.587,15.7 11.978,27.00004 10.842,22.7 13.259,29.3 15.509,42.4 1.91,11.1 1.9,12.5 -0.06,16.5 -3.384,6.8 -17.763,10.6 -28.912,7.8 l -10e-5,0 c -9.605,-2.5 -21.261,-9.6 -28.601,-17.4 -1.98,-2.1 -6.39,-7.9 -9.8,-12.9 -5.96,-8.7 -6.251,-9.4 -7.524,-18.5 -0.727,-5.2 -2.085,-11 -3.016,-12.8 -0.932,-1.8 -5.774,-7.80004 -10.76,-13.40004 -11.437,-12.7 -12.183,-14.5 -11.54,-26.69997 0.4052,-7.7 1.3796,-12.2 5.1838,-23.96997 l 4.6852,-14.47 -1.6935,-8.53 c -1.8222,-9.18 -1.7321,-15.23 0.6821,-45.78 1.5124,-19.14 0.6934,-32.96 -4.0775,-68.75 -7.4749,-56.08 -11.334,-79.18 -18.63,-111.5 -3.711,-16.44 -12.173,-48.56 -13.411,-50.9 -0.466,-0.88 -1.877,2.07 -3.83,8 -7.495,22.77 -12.85,46.37 -21.649,95.4 -7.76099,43.24 -12.00399,64.43 -16.62699,83 -7.608,30.56 -36.03,129.09997 -40.53,140.49997 -5.24,13.29997 -13.32,27.49997 -19.65,34.60001 -4.25,4.7 -4.42,5.2 -5.01,13 -2.6,34.4 -34.42,57 -61.93,44 -3.06,-1.5 -6.13,-3.3 -6.82,-4.2 -0.69,-0.8 -1.47,-4.8 -1.73,-8.8 -0.78,-12.2 1.56,-20 12.8,-42.2 12.1,-23.90004 13.88,-30.30004 12.13,-43.50001 -2.47,-18.52 -1.91,-24.07997 8.46,-83.39997 12.84,-73.45 18.61,-111.75 22.31,-148.09 1.03,-10.06 2.04,-13.87 8.16,-30.91 4.82,-13.41 5.03,-26.61 1,-62.14 -3.41,-30.02 -3.77,-42.21 -1.65,-56.32 1.6,-10.65 1.43,-11.33 -4.45,-17.54 -7.51,-7.93 -8.98,-11.04 -8.97,-18.89 0.01,-3.91 0.94,-11.39 2.06,-16.61 5.71,-26.49 6.99,-34.56 9.39,-59 2.67,-27.08 6.44,-55.63 8.94,-67.54 1.61,-7.67 0.75,-7.42 -2.21,0.63 -2.89,7.88 -4.77,17.68 -7.68,40.01 -1.39,10.67 -3,22.1 -3.57,25.4 -1.2,6.84 -4.97,21.5 -5.54,21.5 -5.5358,-0.89374 -7.15083,0.65448 -14.07142,0.52997 -0.59406,2.25829 -1.09495,4.82957 -1.62692,9.17316 1.54588,4.59206 1.39252,9.42351 0.83924,14.20687 -0.88,1.7 -2.3,7.7 -3.17,13.34 -2.38,15.57 -4.82,23.1 -8.45,26.16 -1.69,1.42 -3.45,2.59 -3.9,2.59 -0.97,0 -4.02,-8.5 -4.02,-11.19 0,-1.02 1.3,-2.63 2.9,-3.6 2.61,-1.6 2.76,-1.95 1.5,-3.68 -0.77,-1.05 -1.4,-3.85 -1.4,-6.22 0,-2.37 -0.39,-4.31 -0.87,-4.31 -1.68,0 -6.19,4.22 -7.77,7.27 -3.07,5.93 -1.43,12.39 7.7,30.41 4.79,9.46 7.95,16.84 7.6,17.75 -0.74,1.93 -5.69,2 -10.82,0.17 -8.46,-3.02 -19.91,-11.67 -23.66,-17.88 -1.07,-1.77 -3.37,-9.18 -5.12,-16.46 -3.65,-15.26 -3.45,-17.23 2.48,-25.32 2.03,-2.77 4.25,-6.93 4.93,-9.24 1.08,-3.68 1.95,-4.57 7.06,-7.2 2.36203,-4.81963 2.76511,-8.47396 3.45064,-12.15801 0.19389,-1.04199 0.3586,-1.97706 0.51427,-2.83768 -4.71602,1.40551 -6.92482,-0.91208 -11.75581,0.99569 l 0.67,-14.5 c 0.95,-20.54 4.32,-57.11 6.11,-66.18 0.83,-4.23 2.83,-11.98 4.45,-17.23 4.21,-13.69 6.2,-24.15 5.4,-28.43 -0.37,-2.02 -1.73,-6.78 -3.02,-10.59 -3.32,-9.79 -3.06,-12.45 2.4,-24.01 l 4.75,-10.06 0,-12.5 c 0,-6.88 -0.59,-19.7 -1.32,-28.5 -1.76,-21.42 -0.91,-25.92 10.07,-53.67 9.62,-24.29 9.92,-25.29 16.63,-55.83 2.71,-12.38 5.39,-23.66 5.94,-25.07 1.46,-3.78 12.34,-7.66 40.18,-14.33 45.558,-10.91 46.335,-11.19 56.597,-20.84 5.65499,-5.31 11.87299,-9.76 13.64699,-9.76 l 3.361,-14.21 c 1.965,-15.130001 1.66,-18.030001 -3.165,-30.110001 -3.371,-8.446 -4.178,-9.685 -6.663,-10.231 -7.21799,-1.585 -12.57199,-10.673 -13.49799,-22.912 -0.746,-9.866 0.433,-11.987 6.224,-11.194 l 4.303,0.59 -0.543,-11.7929997 c -1.182,-25.6479993 7.24599,-42.8090003 25.56399,-52.0560003 12.232,-6.175 24.333,-7.497 37.585,-4.108 10.526,2.6919 16.882,6.3023 24.662,14.008 11.125,11.020001 14.563,21.061001 13.639,39.8320003 l -0.558,11.321 4.422,1.8949997 4.421,1.895 0,6.486 c 0,15.028 -4.496,23.305 -13.88,25.556 l -4.813,1.155 -2.277,9.686 c -3.232,13.75 -3.905,32.760001 -1.491,42.070001 l 1.803,6.95"
       id="path5399"
       inkscape:connector-curvature="0"
       sodipodi:nodetypes="cccccsccccccsccscccccccccccccccccccccccccccccccccccscccccsccccccccsccccccccscccccccccssccsscccccccccscccccccccscccccccccccccccscccccsccccc" />
  </g>
</svg>
