<?xml version="1.0" encoding="UTF-8" standalone="no"?>
<!-- Created with Inkscape (http://www.inkscape.org/) -->

<svg
   xmlns:dc="http://purl.org/dc/elements/1.1/"
   xmlns:cc="http://creativecommons.org/ns#"
   xmlns:rdf="http://www.w3.org/1999/02/22-rdf-syntax-ns#"
   xmlns:svg="http://www.w3.org/2000/svg"
   xmlns="http://www.w3.org/2000/svg"
   xmlns:sodipodi="http://sodipodi.sourceforge.net/DTD/sodipodi-0.dtd"
   xmlns:inkscape="http://www.inkscape.org/namespaces/inkscape"
   width="50"
   height="75"
   viewBox="0 0 50.000002 75.000002"
   id="svg4969"
   version="1.1"
   inkscape:version="0.91 r"
   sodipodi:docname="seat.svg"
   inkscape:export-filename="/home/vitalie/mwambanatanga.github.io/seat.png"
   inkscape:export-xdpi="90"
   inkscape:export-ydpi="90">
  <defs
     id="defs4971" />
  <sodipodi:namedview
     id="base"
     pagecolor="#ffffff"
     bordercolor="#666666"
     borderopacity="1.0"
     inkscape:pageopacity="0.0"
     inkscape:pageshadow="2"
     inkscape:zoom="172.58182"
     inkscape:cx="0.54248748"
     inkscape:cy="-0.83779459"
     inkscape:document-units="px"
     inkscape:current-layer="layer1"
     showgrid="true"
     inkscape:snap-bbox="true"
     inkscape:object-paths="true"
     inkscape:snap-smooth-nodes="true"
     inkscape:object-nodes="true"
     inkscape:snap-bbox-midpoints="true"
     inkscape:bbox-nodes="true"
     inkscape:bbox-paths="true"
     inkscape:snap-bbox-edge-midpoints="true"
     inkscape:snap-intersection-paths="true"
     inkscape:snap-midpoints="true"
     fit-margin-top="0"
     fit-margin-left="0"
     fit-margin-right="0"
     fit-margin-bottom="0"
     units="px"
     inkscape:window-width="1280"
     inkscape:window-height="748"
     inkscape:window-x="0"
     inkscape:window-y="26"
     inkscape:window-maximized="1">
    <inkscape:grid
       type="xygrid"
       id="grid5555"
       originx="0"
       originy="0"
       units="px"
       spacingx="1"
       spacingy="1" />
  </sodipodi:namedview>
  <metadata
     id="metadata4974">
    <rdf:RDF>
      <cc:Work
         rdf:about="">
        <dc:format>image/svg+xml</dc:format>
        <dc:type
           rdf:resource="http://purl.org/dc/dcmitype/StillImage" />
        <dc:title></dc:title>
      </cc:Work>
    </rdf:RDF>
  </metadata>
  <g
     inkscape:label="Layer 1"
     inkscape:groupmode="layer"
     id="layer1"
     transform="translate(-279.98491,-385.86221)">
    <g
       id="g5650"
       transform="matrix(1.9993997,0,0,1.9993995,80.04492,-541.56088)">
      <path
         sodipodi:nodetypes="ccsscccsssscc"
         d="m 125.00468,466.36208 -3,0 c 0,0 -4,-2 -9,-2 l -1,0 c -5,0 -9,2 -9,2 l -3.00168,0 -0.003,28 3.00501,0 c 3,0 4.99999,2 8.99999,2 l 1,0 c 4,0 6.19343,-1.99997 9,-1.99997 l 3,0 z"
         style="fill:#9a190a;fill-opacity:1;fill-rule:evenodd;stroke:none;stroke-width:0.5;stroke-linecap:butt;stroke-linejoin:miter;stroke-miterlimit:4;stroke-dasharray:none;stroke-opacity:1"
         id="path4307-7-0"
         inkscape:connector-curvature="0" />
      <path
         id="path4307-8"
         d="m 99.99498,494.36208 3.005,0 c 3.00001,0 5.00001,2 9.00001,2 l 1,0 c 4,0 6.19343,-1.99997 9,-1.99997 l 3,0 0,6.99997 -24.99999,0 z"
         style="fill:#6f0a0a;fill-opacity:1;fill-rule:evenodd;stroke:none;stroke-width:0.5;stroke-linecap:butt;stroke-linejoin:miter;stroke-miterlimit:4;stroke-dasharray:none;stroke-opacity:1"
         inkscape:connector-curvature="0"
         sodipodi:nodetypes="csssscccc" />
      <path
         id="path4307"
         d="m 99.994987,494.36208 3.005013,0 c 3,0 5,2 9,2 l 1,0 c 4,0 6.19343,-1.99997 9,-1.99997 l 3,0"
         style="fill:none;fill-opacity:1;fill-rule:evenodd;stroke:#000000;stroke-width:0.25007507;stroke-linecap:butt;stroke-linejoin:miter;stroke-miterlimit:4;stroke-dasharray:none;stroke-opacity:1"
         inkscape:connector-curvature="0"
         sodipodi:nodetypes="cssssc" />
      <path
         sodipodi:nodetypes="cc"
         id="path4304-3-4"
         d="m 125,501.36208 -24.99999,0"
         style="fill:none;fill-rule:evenodd;stroke:#000000;stroke-width:0.25007507;stroke-linecap:butt;stroke-linejoin:miter;stroke-miterlimit:4;stroke-dasharray:none;stroke-opacity:1"
         inkscape:connector-curvature="0" />
      <path
         sodipodi:nodetypes="sszzsszzs"
         inkscape:connector-curvature="0"
         id="path4343-2"
         d="m 105,486.36208 c -0.95746,-5.74478 -3.03147,-8.24279 -3.03147,-13.24279 0,-2.85143 6.03147,-4.75721 10.03147,-4.75721 l 1,0 c 4,0 10,2.07468 10,5 0,5 -2.54169,7.77874 -3.49915,13.52351 C 118.5973,492.30691 116,493.36208 113,493.36208 l -1,0 c -3,0 -6,-1 -7,-7 z"
         style="fill:#490a0a;fill-opacity:1;fill-rule:evenodd;stroke:#000000;stroke-width:0.25007507;stroke-linecap:butt;stroke-linejoin:miter;stroke-miterlimit:4;stroke-dasharray:none;stroke-opacity:1" />
      <path
         id="path4307-7"
         d="m 125,466.36208 -3,0 c 0,0 -4,-2 -9,-2 l -1,0 c -5,0 -9,2 -9,2 l -3.001686,0"
         style="fill:none;fill-opacity:1;fill-rule:evenodd;stroke:#000000;stroke-width:0.25007507;stroke-linecap:butt;stroke-linejoin:miter;stroke-miterlimit:4;stroke-dasharray:none;stroke-opacity:1"
         inkscape:connector-curvature="0" />
    </g>
  </g>
</svg>
